<mxfile host="app.diagrams.net" agent="Mozilla/5.0 (Windows NT 10.0; Win64; x64) AppleWebKit/537.36 (KHTML, like Gecko) Chrome/134.0.0.0 Safari/537.36" version="26.2.5">
  <diagram name="Página-1" id="GoQtma_MRUQSzyQgx9ll">
    <mxGraphModel dx="985" dy="506" grid="1" gridSize="10" guides="1" tooltips="1" connect="1" arrows="1" fold="1" page="1" pageScale="1" pageWidth="827" pageHeight="1169" math="0" shadow="0">
      <root>
        <mxCell id="0" />
        <mxCell id="1" parent="0" />
        <mxCell id="UFdawh8oQOqrxubm9Oic-15" style="edgeStyle=orthogonalEdgeStyle;rounded=0;orthogonalLoop=1;jettySize=auto;html=1;entryX=0.5;entryY=0;entryDx=0;entryDy=0;shape=flexArrow;labelBackgroundColor=none;strokeColor=#457B9D;fontColor=default;" edge="1" parent="1" source="UFdawh8oQOqrxubm9Oic-1" target="UFdawh8oQOqrxubm9Oic-2">
          <mxGeometry relative="1" as="geometry" />
        </mxCell>
        <mxCell id="UFdawh8oQOqrxubm9Oic-1" value="Inicio de sesión" style="rounded=0;whiteSpace=wrap;html=1;fillColor=#A8DADC;strokeColor=#457B9D;labelBackgroundColor=none;fontColor=#1D3557;" vertex="1" parent="1">
          <mxGeometry x="354" y="40" width="120" height="60" as="geometry" />
        </mxCell>
        <mxCell id="UFdawh8oQOqrxubm9Oic-16" style="edgeStyle=orthogonalEdgeStyle;rounded=0;orthogonalLoop=1;jettySize=auto;html=1;entryX=0.5;entryY=0;entryDx=0;entryDy=0;strokeColor=#457B9D;shape=flexArrow;strokeWidth=1;labelBackgroundColor=none;fontColor=default;" edge="1" parent="1" source="UFdawh8oQOqrxubm9Oic-2" target="UFdawh8oQOqrxubm9Oic-3">
          <mxGeometry relative="1" as="geometry" />
        </mxCell>
        <mxCell id="UFdawh8oQOqrxubm9Oic-18" style="edgeStyle=orthogonalEdgeStyle;rounded=0;orthogonalLoop=1;jettySize=auto;html=1;shape=flexArrow;labelBackgroundColor=none;fontColor=default;fillColor=#bac8d3;strokeColor=#23445d;" edge="1" parent="1" source="UFdawh8oQOqrxubm9Oic-2" target="UFdawh8oQOqrxubm9Oic-5">
          <mxGeometry relative="1" as="geometry">
            <Array as="points">
              <mxPoint x="414" y="240" />
              <mxPoint x="514" y="240" />
            </Array>
          </mxGeometry>
        </mxCell>
        <mxCell id="UFdawh8oQOqrxubm9Oic-19" style="rounded=0;orthogonalLoop=1;jettySize=auto;html=1;exitX=1;exitY=0.75;exitDx=0;exitDy=0;shape=flexArrow;strokeWidth=1;edgeStyle=orthogonalEdgeStyle;elbow=vertical;endArrow=block;startSize=6;endSize=6;labelBackgroundColor=none;strokeColor=#457B9D;fontColor=default;" edge="1" parent="1" source="UFdawh8oQOqrxubm9Oic-2" target="UFdawh8oQOqrxubm9Oic-6">
          <mxGeometry relative="1" as="geometry" />
        </mxCell>
        <mxCell id="UFdawh8oQOqrxubm9Oic-17" style="edgeStyle=orthogonalEdgeStyle;rounded=0;orthogonalLoop=1;jettySize=auto;html=1;entryX=0.5;entryY=0;entryDx=0;entryDy=0;shape=flexArrow;labelBackgroundColor=none;fontColor=default;fillColor=#bac8d3;strokeColor=#23445d;" edge="1" parent="1" source="UFdawh8oQOqrxubm9Oic-2" target="UFdawh8oQOqrxubm9Oic-4">
          <mxGeometry relative="1" as="geometry" />
        </mxCell>
        <mxCell id="UFdawh8oQOqrxubm9Oic-2" value="Menú de opciones" style="rounded=0;whiteSpace=wrap;html=1;labelBackgroundColor=none;fillColor=#A8DADC;strokeColor=#457B9D;fontColor=#1D3557;" vertex="1" parent="1">
          <mxGeometry x="354" y="140" width="120" height="60" as="geometry" />
        </mxCell>
        <mxCell id="UFdawh8oQOqrxubm9Oic-3" value="Consulta saldo" style="rounded=0;whiteSpace=wrap;html=1;labelBackgroundColor=none;fillColor=#A8DADC;strokeColor=#457B9D;fontColor=#1D3557;" vertex="1" parent="1">
          <mxGeometry x="54" y="280" width="120" height="60" as="geometry" />
        </mxCell>
        <mxCell id="UFdawh8oQOqrxubm9Oic-4" value="Retiro sin tarjeta" style="rounded=0;whiteSpace=wrap;html=1;labelBackgroundColor=none;fillColor=#A8DADC;strokeColor=#457B9D;fontColor=#1D3557;" vertex="1" parent="1">
          <mxGeometry x="254" y="280" width="120" height="60" as="geometry" />
        </mxCell>
        <mxCell id="UFdawh8oQOqrxubm9Oic-5" value="Transferencia" style="rounded=0;whiteSpace=wrap;html=1;labelBackgroundColor=none;fillColor=#A8DADC;strokeColor=#457B9D;fontColor=#1D3557;" vertex="1" parent="1">
          <mxGeometry x="454" y="280" width="120" height="60" as="geometry" />
        </mxCell>
        <mxCell id="UFdawh8oQOqrxubm9Oic-6" value="Pago de servicios" style="rounded=0;whiteSpace=wrap;html=1;labelBackgroundColor=none;fillColor=#A8DADC;strokeColor=#457B9D;fontColor=#1D3557;" vertex="1" parent="1">
          <mxGeometry x="654" y="280" width="120" height="60" as="geometry" />
        </mxCell>
        <mxCell id="UFdawh8oQOqrxubm9Oic-10" value="Elige el monto y el concepto" style="rounded=0;whiteSpace=wrap;html=1;labelBackgroundColor=none;fillColor=#A8DADC;strokeColor=#457B9D;fontColor=#1D3557;" vertex="1" parent="1">
          <mxGeometry x="254" y="370" width="120" height="60" as="geometry" />
        </mxCell>
        <mxCell id="UFdawh8oQOqrxubm9Oic-11" value="Genera código" style="rounded=0;whiteSpace=wrap;html=1;labelBackgroundColor=none;fillColor=#A8DADC;strokeColor=#457B9D;fontColor=#1D3557;" vertex="1" parent="1">
          <mxGeometry x="254" y="460" width="120" height="60" as="geometry" />
        </mxCell>
        <mxCell id="UFdawh8oQOqrxubm9Oic-12" value="Genera código" style="rounded=0;whiteSpace=wrap;html=1;labelBackgroundColor=none;fillColor=#A8DADC;strokeColor=#457B9D;fontColor=#1D3557;" vertex="1" parent="1">
          <mxGeometry x="254" y="554.5" width="120" height="60" as="geometry" />
        </mxCell>
        <mxCell id="UFdawh8oQOqrxubm9Oic-14" style="edgeStyle=orthogonalEdgeStyle;rounded=0;orthogonalLoop=1;jettySize=auto;html=1;exitX=1;exitY=0.5;exitDx=0;exitDy=0;entryX=1;entryY=0.5;entryDx=0;entryDy=0;shape=flexArrow;labelBackgroundColor=none;strokeColor=#457B9D;fontColor=default;" edge="1" parent="1" source="UFdawh8oQOqrxubm9Oic-13">
          <mxGeometry relative="1" as="geometry">
            <mxPoint x="474.0000000000002" y="160" as="targetPoint" />
            <mxPoint x="374" y="647" as="sourcePoint" />
            <Array as="points">
              <mxPoint x="800" y="667" />
              <mxPoint x="800" y="160" />
            </Array>
          </mxGeometry>
        </mxCell>
        <mxCell id="UFdawh8oQOqrxubm9Oic-13" value="Genera comprobante" style="rounded=0;whiteSpace=wrap;html=1;labelBackgroundColor=none;fillColor=#A8DADC;strokeColor=#457B9D;fontColor=#1D3557;" vertex="1" parent="1">
          <mxGeometry x="254" y="637" width="120" height="60" as="geometry" />
        </mxCell>
      </root>
    </mxGraphModel>
  </diagram>
</mxfile>
